<?xml version="1.0" encoding="UTF-8"?>
<!-- Generator: visioncortex VTracer 0.6.4 -->
<svg version="1.1" xmlns="http://www.w3.org/2000/svg" width="278" height="247">
<path d="M0 0 C91.74 0 183.48 0 278 0 C278 81.51 278 163.02 278 247 C186.26 247 94.52 247 0 247 C0 165.49 0 83.98 0 0 Z " fill="#140D4C" transform="translate(0,0)"/>
<path d="M0 0 C0.81 0.02 1.63 0.03 2.47 0.05 C3.4 0.08 3.4 0.08 4.35 0.11 C4.56 8.78 4.72 17.46 4.82 26.13 C4.86 30.16 4.93 34.19 5.03 38.22 C5.13 42.12 5.18 46.02 5.21 49.91 C5.22 51.39 5.25 52.87 5.3 54.35 C5.6 63.78 4.38 69.74 -2.23 76.86 C-6.19 80.54 -10.33 83.86 -14.65 87.11 C-16.47 88.58 -18.28 90.06 -20.09 91.54 C-22.9 93.86 -25.72 96.16 -28.58 98.43 C-37.29 105.21 -37.29 105.21 -43.65 114.11 C-43.8 116.06 -43.9 118.03 -43.96 119.99 C-44.03 121.74 -44.03 121.74 -44.09 123.52 C-44.13 124.75 -44.17 125.97 -44.21 127.23 C-44.28 129.08 -44.28 129.08 -44.34 130.96 C-44.45 134.01 -44.55 137.06 -44.65 140.11 C-50.92 140.11 -57.19 140.11 -63.65 140.11 C-63.65 130.87 -63.65 121.63 -63.65 112.11 C-69.59 112.11 -75.53 112.11 -81.65 112.11 C-81.76 107.79 -81.84 103.48 -81.9 99.17 C-81.93 97.96 -81.97 96.74 -82 95.49 C-82.11 85.24 -80.1 77.96 -73.07 70.38 C-67.94 65.55 -62.37 61.23 -56.85 56.85 C-53.17 53.93 -49.54 50.95 -45.9 47.98 C-44 46.43 -42.11 44.89 -40.2 43.36 C-38.95 42.35 -37.71 41.33 -36.47 40.3 C-33.16 38.13 -29.54 37.86 -25.65 38.11 C-22.73 39.87 -21.17 41.06 -19.65 44.11 C-19.29 47.92 -19.08 50.25 -21.23 53.49 C-24.11 56.61 -27.22 59.11 -30.59 61.67 C-32.39 63.06 -34.19 64.45 -35.99 65.84 C-37.5 66.99 -39.03 68.12 -40.56 69.25 C-42.98 70.99 -42.98 70.99 -43.09 74.23 C-42.92 77.23 -42.92 77.23 -40.65 79.11 C-38.33 79.7 -38.33 79.7 -35.65 79.11 C-33.36 77.49 -31.39 75.91 -29.34 74.04 C-28.77 73.54 -28.2 73.04 -27.61 72.52 C-26.48 71.52 -25.34 70.51 -24.21 69.49 C-21.59 67.16 -18.85 64.96 -16.14 62.74 C-11.69 57.86 -12.35 51.71 -12.34 45.51 C-12.31 43.41 -12.29 41.31 -12.26 39.2 C-12.23 35.9 -12.21 32.59 -12.19 29.29 C-12.17 26.09 -12.13 22.9 -12.09 19.7 C-12.09 18.71 -12.09 17.73 -12.09 16.71 C-12.02 11.68 -11.9 8.2 -8.65 4.11 C-8.11 3.34 -7.58 2.58 -7.02 1.79 C-4.27 -0.16 -3.29 -0.08 0 0 Z " fill="#35BFEF" transform="translate(224.6484375,86.89453125)"/>
<path d="M0 0 C5.04 -0.12 7.94 -0.16 12 3 C14.58 5.91 15.38 7.73 15.4 11.61 C15.41 12.52 15.43 13.43 15.44 14.36 C15.44 15.34 15.44 16.31 15.44 17.31 C15.45 18.32 15.47 19.32 15.48 20.36 C15.52 23.57 15.54 26.79 15.56 30 C15.59 33.21 15.61 36.43 15.65 39.64 C15.68 41.64 15.69 43.64 15.7 45.64 C15.71 46.54 15.72 47.45 15.73 48.39 C15.73 49.18 15.74 49.98 15.74 50.8 C16.03 53.25 16.9 54.81 18 57 C18 58.32 18 59.64 18 61 C19.48 61.5 19.48 61.5 21 62 C22.14 63.41 23.28 64.82 24.41 66.25 C27.5 69.66 31.31 72.27 35 75 C35.66 75.56 36.33 76.12 37.01 76.7 C40.3 78.86 43.15 78.19 47 78 C47.49 74.73 47.49 74.73 47 71 C45.07 68.82 43.48 67.34 41.19 65.62 C40.61 65.16 40.02 64.69 39.42 64.21 C36.56 61.92 33.64 59.73 30.69 57.57 C23.45 52.12 23.45 52.12 22.14 48.88 C21.89 45.25 23.05 42.41 25.06 39.5 C28 37 28 37 31.38 36.38 C38.5 37.6 43.56 42.07 48.81 46.75 C50.04 47.82 51.27 48.89 52.5 49.96 C53.1 50.48 53.69 51 54.3 51.54 C58.88 55.48 63.64 59.2 68.44 62.87 C76.07 68.71 83.35 74.43 86 84 C86.23 87.16 86.23 87.16 86.2 90.49 C86.19 91.69 86.18 92.89 86.18 94.12 C86.15 95.98 86.15 95.98 86.12 97.88 C86.12 99.14 86.11 100.4 86.1 101.7 C86.07 104.8 86.04 107.9 86 111 C80.06 111 74.12 111 68 111 C68 120.24 68 129.48 68 139 C61.4 139 54.8 139 48 139 C47.99 137.22 47.97 135.43 47.96 133.59 C47.91 131.23 47.86 128.86 47.81 126.5 C47.81 125.33 47.8 124.15 47.79 122.95 C47.59 114.76 46.49 109.33 40.5 103.55 C38.91 102.2 37.26 100.97 35.56 99.75 C34.32 98.82 33.08 97.88 31.84 96.94 C30.89 96.22 30.89 96.22 29.92 95.49 C26.73 93.02 23.68 90.39 20.62 87.75 C20.04 87.24 19.45 86.74 18.85 86.22 C17.73 85.25 16.62 84.28 15.51 83.31 C14.18 82.16 12.85 81.01 11.52 79.86 C1.67 71.35 1.67 71.35 0 68 C-0.09 65.85 -0.12 63.69 -0.11 61.53 C-0.11 60.87 -0.11 60.2 -0.11 59.52 C-0.11 57.32 -0.11 55.13 -0.1 52.93 C-0.1 51.41 -0.09 49.89 -0.09 48.36 C-0.09 44.36 -0.08 40.35 -0.07 36.34 C-0.06 32.25 -0.05 28.16 -0.05 24.07 C-0.04 16.05 -0.02 8.02 0 0 Z " fill="#35BFEF" transform="translate(49,88)"/>
<path d="M0 0 C4.95 0 9.9 0 15 0 C15 13.53 15 27.06 15 41 C21.6 41 28.2 41 35 41 C35.23 46.84 35.43 52.66 35.55 58.5 C35.6 60.49 35.67 62.47 35.75 64.45 C36.46 80.92 36.46 80.92 32.91 85.99 C30.36 88.03 27.89 89.49 25 91 C24.11 91.72 23.21 92.44 22.3 93.18 C20 95 20 95 18 95 C17.67 95.99 17.34 96.98 17 98 C16.01 98 15.02 98 14 98 C14 79.19 14 60.38 14 41 C7.4 41 0.8 41 -6 41 C-6.12 36.11 -6.21 31.22 -6.27 26.32 C-6.3 24.66 -6.33 22.99 -6.38 21.33 C-6.44 18.94 -6.47 16.54 -6.49 14.14 C-6.51 13.4 -6.54 12.66 -6.57 11.9 C-6.57 7.84 -6.18 6.21 -3.53 3.05 C-2.7 2.38 -1.86 1.7 -1 1 C-0.67 0.67 -0.34 0.34 0 0 Z " fill="#34B9E9" transform="translate(124,58)"/>
<path d="M0 0 C0.33 7.26 0.66 14.52 1 22 C7.93 22.5 7.93 22.5 15 23 C15 34.88 15 46.76 15 59 C8.97 56.59 4.16 54.08 0 49 C-1.19 44.43 -0.96 40.18 -0.62 35.5 C-0.58 34.3 -0.53 33.09 -0.49 31.85 C-0.37 28.9 -0.19 25.95 0 23 C-4.95 23 -9.9 23 -15 23 C-15.08 19.9 -15.14 16.79 -15.19 13.69 C-15.21 12.81 -15.24 11.93 -15.26 11.02 C-15.27 10.17 -15.28 9.32 -15.29 8.45 C-15.31 7.67 -15.32 6.89 -15.34 6.08 C-14.91 3.44 -14.1 2.62 -12 1 C-9 0 -9 0 0 0 Z " fill="#34BBEB" transform="translate(97,76)"/>
<path d="M0 0 C0 13.2 0 26.4 0 40 C-6.27 40 -12.54 40 -19 40 C-19.05 35.39 -19.09 30.78 -19.11 26.18 C-19.12 24.61 -19.13 23.04 -19.15 21.48 C-19.18 19.22 -19.19 16.96 -19.2 14.71 C-19.21 14.01 -19.22 13.31 -19.23 12.6 C-19.23 8.63 -18.92 5.51 -17 2 C-14 0 -14 0 0 0 Z " fill="#36C4F4" transform="translate(138,58)"/>
<path d="M0 0 C0.84 -0.03 1.68 -0.06 2.55 -0.09 C6.62 -0.13 9.44 0.21 13.27 1.72 C16.31 4.98 16.31 6.84 16.23 11.17 C16.17 12.12 16.12 13.08 16.06 14.06 C15.94 17.12 15.81 20.17 15.69 23.31 C5.46 23.31 -4.77 23.31 -15.31 23.31 C-15.37 20.24 -15.44 17.17 -15.5 14 C-15.53 13.04 -15.55 12.07 -15.58 11.08 C-15.59 10.31 -15.6 9.55 -15.61 8.76 C-15.62 7.98 -15.64 7.2 -15.65 6.4 C-15.22 3.75 -14.41 2.93 -12.31 1.31 C-8.19 -0.06 -4.32 0.05 0 0 Z " fill="#35BEEE" transform="translate(180.3125,75.6875)"/>
<path d="M0 0 C3.34 1.25 6.22 2.77 8.17 5.86 C9.6 9.56 9.56 13.11 9 17 C6.55 21.33 3.61 23.25 -1 25 C-3.88 25.62 -3.88 25.62 -7 25 C-10.48 22.54 -14.07 19.86 -16 16 C-16.8 9.28 -16.8 9.28 -14.73 5.95 C-10.3 0.74 -7.02 -0.92 0 0 Z " fill="#35BCEC" transform="translate(142,30)"/>
<path d="M0 0 C0 7.26 0 14.52 0 22 C-4.62 22 -9.24 22 -14 22 C-14.13 18.89 -14.23 15.79 -14.31 12.69 C-14.35 11.81 -14.4 10.93 -14.44 10.02 C-14.56 3.6 -14.56 3.6 -12.04 0.89 C-9 0 -9 0 0 0 Z " fill="#36C3F2" transform="translate(97,76)"/>
<path d="M0 0 C2.85 2.92 3.06 3.71 3.31 7.62 C3.06 11.5 2.84 12.33 0.06 15.25 C-4.36 16.99 -6.71 17.23 -11.44 16.62 C-14.44 15.19 -14.44 15.19 -16.44 12.62 C-17.25 7.91 -17.11 4.64 -14.44 0.62 C-9.83 -2.61 -5.01 -2 0 0 Z " fill="#34B8E9" transform="translate(187.4375,56.375)"/>
<path d="M0 0 C3.06 2.06 3.06 2.06 5 5 C5.83 9.54 5.33 11.44 3 15.44 C-0.53 18.45 -0.53 18.45 -4 18.69 C-7.15 18.41 -8.22 17.86 -11 16.06 C-13.68 11.95 -13.93 8.78 -13 4 C-10.16 -1.06 -5.25 -1.06 0 0 Z " fill="#35BEEE" transform="translate(101,55)"/>
<path d="M0 0 C0.33 0.66 0.66 1.32 1 2 C0.01 2.66 -0.98 3.32 -2 4 C0.47 4.5 0.47 4.5 3 5 C3 5.33 3 5.66 3 6 C-7.4 6.5 -7.4 6.5 -18 7 C-17.67 6.34 -17.34 5.68 -17 5 C-14.36 5 -11.72 5 -9 5 C-9 4.34 -9 3.68 -9 3 C-7.89 2.69 -6.77 2.38 -5.62 2.06 C-2.21 1.18 -2.21 1.18 0 0 Z " fill="#1C3B76" transform="translate(187,70)"/>
<path d="M0 0 C-1.56 3.82 -3.96 6.26 -7 9 C-7.66 9 -8.32 9 -9 9 C-7.46 5.21 -4.45 0 0 0 Z " fill="#30A4D6" transform="translate(157,154)"/>
</svg>
